{
	"asset":{
		"generator":"Khronos glTF Blender I/O v3.5.30",
		"version":"2.0"
	},
	"extensionsUsed":[
		"KHR_materials_specular",
		"KHR_materials_ior"
	],
	"scene":0,
	"scenes":[
		{
			"name":"Scene",
			"nodes":[
				0
			]
		}
	],
	"nodes":[
		{
			"mesh":0,
			"name":"default",
			"rotation":[
				0.7071068286895752,
				0,
				0,
				0.7071068286895752
			]
		}
	],
	"materials":[
		{
			"doubleSided":true,
			"extensions":{
				"KHR_materials_specular":{
					"specularColorFactor":[
						1.897086119821904,
						1.897086119821904,
						1.897086119821904
					]
				},
				"KHR_materials_ior":{
					"ior":1.4500000476837158
				}
			},
			"name":"None.003",
			"pbrMetallicRoughness":{
				"metallicFactor":0
			}
		},
		{
			"doubleSided":true,
			"extensions":{
				"KHR_materials_specular":{
					"specularColorFactor":[
						2.371357614441398,
						2.371357614441398,
						2.371357614441398
					]
				},
				"KHR_materials_ior":{
					"ior":1.4500000476837158
				}
			},
			"name":"None.002",
			"pbrMetallicRoughness":{
				"metallicFactor":0
			}
		}
	],
	"meshes":[
		{
			"name":"default",
			"primitives":[
				{
					"attributes":{
						"POSITION":0,
						"TEXCOORD_0":1,
						"NORMAL":2
					},
					"indices":3,
					"material":0
				},
				{
					"attributes":{
						"POSITION":4,
						"TEXCOORD_0":5,
						"NORMAL":6
					},
					"indices":7,
					"material":1
				}
			]
		}
	],
	"accessors":[
		{
			"bufferView":0,
			"componentType":5126,
			"count":128,
			"max":[
				1.5559501647949219,
				1.0778440237045288,
				2.2848501205444336
			],
			"min":[
				-1.5591318607330322,
				-1.141555905342102,
				-2.55303692817688
			],
			"type":"VEC3"
		},
		{
			"bufferView":1,
			"componentType":5126,
			"count":128,
			"type":"VEC2"
		},
		{
			"bufferView":2,
			"componentType":5126,
			"count":128,
			"type":"VEC3"
		},
		{
			"bufferView":3,
			"componentType":5123,
			"count":159,
			"type":"SCALAR"
		},
		{
			"bufferView":4,
			"componentType":5126,
			"count":1545,
			"max":[
				1.8927161693572998,
				1.9101191759109497,
				2.6786320209503174
			],
			"min":[
				-1.8958978652954102,
				-1.141555905342102,
				-3.115581750869751
			],
			"type":"VEC3"
		},
		{
			"bufferView":5,
			"componentType":5126,
			"count":1545,
			"type":"VEC2"
		},
		{
			"bufferView":6,
			"componentType":5126,
			"count":1545,
			"type":"VEC3"
		},
		{
			"bufferView":7,
			"componentType":5123,
			"count":1545,
			"type":"SCALAR"
		}
	],
	"bufferViews":[
		{
			"buffer":0,
			"byteLength":1536,
			"byteOffset":0,
			"target":34962
		},
		{
			"buffer":0,
			"byteLength":1024,
			"byteOffset":1536,
			"target":34962
		},
		{
			"buffer":0,
			"byteLength":1536,
			"byteOffset":2560,
			"target":34962
		},
		{
			"buffer":0,
			"byteLength":318,
			"byteOffset":4096,
			"target":34963
		},
		{
			"buffer":0,
			"byteLength":18540,
			"byteOffset":4416,
			"target":34962
		},
		{
			"buffer":0,
			"byteLength":12360,
			"byteOffset":22956,
			"target":34962
		},
		{
			"buffer":0,
			"byteLength":18540,
			"byteOffset":35316,
			"target":34962
		},
		{
			"buffer":0,
			"byteLength":3090,
			"byteOffset":53856,
			"target":34963
		}
	],
	"buffers":[
		{
			"byteLength":56948,
			"uri":"data:application/octet-stream;base64,"
		}
	]
}
