{
  "asset": {
    "generator": "Khronos glTF Blender I/O v3.5.30",
    "version": "2.0"
  },
  "scene": 0,
  "scenes": [
    {
      "name": "Scene",
      "nodes": [0]
    }
  ],
  "nodes": [
    {
      "mesh": 0,
      "name": "2",
      "rotation": [0.7071068286895752, 0, 0, 0.7071068286895752]
    }
  ],
  "meshes": [
    {
      "name": "2",
      "primitives": [
        {
          "attributes": {
            "POSITION": 0
          },
          "indices": 1
        }
      ]
    }
  ],
  "accessors": [
    {
      "bufferView": 0,
      "componentType": 5126,
      "count": 344,
      "max": [1.894307017326355, 2.358112096786499, 0],
      "min": [-1.894307017326355, -0.6935629844665527, -5.794213771820068],
      "type": "VEC3"
    },
    {
      "bufferView": 1,
      "componentType": 5123,
      "count": 1704,
      "type": "SCALAR"
    }
  ],
  "bufferViews": [
    {
      "buffer": 0,
      "byteLength": 4128,
      "byteOffset": 0,
      "target": 34962
    },
    {
      "buffer": 0,
      "byteLength": 3408,
      "byteOffset": 4128,
      "target": 34963
    }
  ],
  "buffers": [
    {
      "byteLength": 7536,
      "uri": "data:application/octet-stream;base64,"
    }
  ]
}
